<svg id="_x33_0" enable-background="new 0 0 64 64" height="512" viewBox="0 0 64 64" width="512" xmlns="http://www.w3.org/2000/svg"><g><g><g><path d="m48 8-.63.21c-1.49.5-2.66 1.67-3.16 3.16l-.21.63-.21-.63c-.5-1.49-1.67-2.66-3.16-3.16l-.63-.21c1.89-.63 3.37-2.11 4-4l.21.63c.5 1.49 1.67 2.66 3.16 3.16z" fill="#ff826e"/></g><g><path d="m10 6-1.59-1.59c-.26-.26-.41-.62-.41-1 0-.78.63-1.41 1.41-1.41h15.91c5.9 0 10.68 4.78 10.68 10.68 0 .88-.11 1.75-.32 2.6l-.43 1.73-.01.01c-.54-.63-1.34-1.02-2.24-1.02h-1c0-3.31-2.69-6-6-6h-2c0 1.1-.45 2.1-1.17 2.83-.73.72-1.73 1.17-2.83 1.17h-.1c-2.75 0-5.44-.6-7.9-1.72-1.42-.64-2.77-1.46-4-2.45-.55-.44-1.09-.92-1.59-1.42-.26-.26-.41-.62-.41-1 0-.78.63-1.41 1.41-1.41z" fill="#656d78"/></g><g><path d="m11 16c-.92 0-1.74.41-2.29 1.06-.47-1.7-.71-3.46-.71-5.22v-2.01c1.23.99 2.58 1.81 4 2.45v.01 3.71z" fill="#656d78"/></g><g><path d="m23.51 37.31 4.49 2.69-2 12h-8l-2-12 4.49-2.69c.37.42.91.69 1.51.69s1.14-.27 1.51-.69z" fill="#e6e9ed"/></g><g><path d="m29.24 33.2 3.38.21c.01 0 .02.01.03.01l1.66 1.42c.65.56 1.34 1.04 2.08 1.46-2.67.28-5.07.74-6.61 1.31.13-.46.22-.99.22-1.61 0-1.27-.36-2.18-.76-2.8z" fill="#fcd770"/></g><g><path d="m32 45.02v6.6c0-.9-.72-1.62-1.62-1.62-.25 0-.5.06-.72.17l-3.66 1.83 2-12v3c0 .78 1.61 1.48 4 2.02z" fill="#fcd770"/></g><g><path d="m2 53v-9.61c0-5.28 4.11-9.65 9.38-9.98l3.38-.21c-.4.62-.76 1.53-.76 2.8 0 3 2 4 2 4l2 12h8v6h-19c-2.76 0-5-2.24-5-5z" fill="#fcd770"/></g><g><path d="m28 32s.67.33 1.24 1.2c.4.62.76 1.53.76 2.8 0 .62-.09 1.15-.22 1.61v.01c-1.11.41-1.78.88-1.78 1.38v1l-4.49-2.69c.3-.35.49-.81.49-1.31s-.19-.96-.49-1.31l3.24-1.94h.01z" fill="#ff826e"/></g><g><path d="m17.25 32.75 3.24 1.94c-.31.35-.49.81-.49 1.31s.18.96.49 1.31l-4.49 2.69s-2-1-2-4c0-1.27.36-2.18.76-2.8.57-.87 1.24-1.2 1.24-1.2l1.24.75z" fill="#ff826e"/></g><g><path d="m23.51 34.69c.3.35.49.81.49 1.31s-.19.96-.49 1.31c-.37.42-.91.69-1.51.69s-1.14-.27-1.51-.69c-.31-.35-.49-.81-.49-1.31s.18-.96.49-1.31c.37-.42.91-.69 1.51-.69s1.14.27 1.51.69z" fill="#fc6e51"/></g><g><path d="m52 45.02v12.98c0 1.8-1.33 3.31-3.11 3.55-2.16.29-4.57.45-6.89.45s-4.73-.16-6.89-.45c-1.78-.24-3.11-1.75-3.11-3.55h2c1.1 0 2-.9 2-2v-2c0-1.1-.9-2-2-2h-2v-.38-6.6c2.73.6 6.47.98 10 .98s7.27-.38 10-.98z" fill="#dfb28b"/></g><g><path d="m28 39c0 1.66 7.37 3 14 3s14-1.34 14-3v4c0 .78-1.61 1.48-4 2.01v.01c-2.73.6-6.47.98-10 .98s-7.27-.38-10-.98c-2.39-.54-4-1.24-4-2.02v-3z" fill="#d3a06c"/></g><g><path d="m49.02 36.47c3.94.53 6.98 1.47 6.98 2.53 0 1.66-7.37 3-14 3s-14-1.34-14-3c0-.5.67-.97 1.78-1.38v-.01c1.54-.57 3.94-1.03 6.61-1.31 1.96 1.11 4.19 1.7 6.47 1.7 2.22 0 4.32-.55 6.16-1.53z" fill="#cf9e76"/></g><g><path d="m36 54v2c0 1.1-.9 2-2 2h-2-6v-6l3.66-1.83c.22-.11.47-.17.72-.17.9 0 1.62.72 1.62 1.62v.38h2c1.1 0 2 .9 2 2z" fill="#f0d0b4"/></g><g><path d="m31.24 22c.5-1.4.76-2.9.76-4.43v-1.57h1c.9 0 1.7.39 2.24 1.02.47.53.76 1.22.76 1.98 0 .21-.02.41-.51 1.68-.11.16-.23.3-.37.44-.54.54-1.29.88-2.12.88h-1.75z" fill="#f0d0b4"/></g><g><path d="m26.75 32.75-3.24 1.94c-.37-.42-.91-.69-1.51-.69s-1.14.27-1.51.69l-3.24-1.94c.65-.38 1.14-.97 1.37-1.7l.53-1.66c.89.4 1.86.61 2.85.61s1.96-.21 2.85-.61l.53 1.66c.23.73.72 1.32 1.37 1.7z" fill="#f0d0b4"/></g><g><path d="m12 12.28c2.46 1.12 5.15 1.72 7.9 1.72h.1c1.1 0 2.1-.45 2.83-1.17.72-.73 1.17-1.73 1.17-2.83h2c3.31 0 6 2.69 6 6v1.57c0 1.53-.26 3.03-.76 4.43-.99 2.84-2.92 5.3-5.54 6.94-.27.17-.56.32-.85.45-.89.4-1.86.61-2.85.61s-1.96-.21-2.85-.61c-.29-.13-.58-.28-.85-.45-1.96-1.22-3.54-2.91-4.62-4.87-.36-.66-.67-1.35-.92-2.07-.5-1.4-.76-2.9-.76-4.43v-1.57-3.71z" fill="#f0d0b4"/></g><g><path d="m12 17.57c0 1.53.26 3.03.76 4.43h-.01-1.75c-.83 0-1.58-.34-2.12-.88s-.88-1.29-.88-2.12c0-.74.27-1.42.71-1.94.55-.65 1.37-1.06 2.29-1.06h1z" fill="#f0d0b4"/></g><g><path d="m38.88 28.86.01-.01c-.56-.61-.89-1.41-.89-2.29v-1.11-.01c-1.2-.7-2-2-2-3.49v-.23l.29-.96c.31-.46.84-.76 1.43-.76.19 0 .37.03.54.09l8.74 2.91.47-3.32c.15-1.06.68-1.98 1.44-2.63.75-.66 1.74-1.05 2.81-1.05 2.27 0 4.13 1.77 4.27 4 .01.09.01.19.01.28v3.72.86c0 3.63-1.47 6.92-3.85 9.29-.92.92-1.97 1.71-3.13 2.32-1.84.98-3.94 1.53-6.16 1.53-2.28 0-4.51-.59-6.47-1.7-.74-.42-1.43-.9-2.08-1.46l-1.66-1.42-1.65-1.42 2-1-1-3z" fill="#e6e9ed"/></g><g><path d="m59.73 22.92.27 1.08h-4v-3.72c0-.09 0-.19-.01-.28 1.77 0 3.31 1.2 3.74 2.92z" fill="#ff826e"/></g></g><g><circle cx="18" cy="18" r="1"/><circle cx="26" cy="18" r="1"/><path d="m22 27c1.615 0 3.067-.897 3.789-2.342l.105-.211-1.789-.895-.105.212c-.381.762-1.147 1.236-2 1.236s-1.619-.474-2-1.236l-.105-.211-1.789.895.105.211c.722 1.444 2.174 2.341 3.789 2.341z"/><circle cx="52" cy="20" r="1"/><path d="m56.848 19.079c-.548-2.333-2.635-4.079-5.132-4.079-2.613 0-4.862 1.951-5.231 4.537l-.305 2.136-7.598-2.533c-.279-.093-.568-.14-.861-.14-.255 0-.498.047-.732.113.001-.039.011-.074.011-.113 0-.815-.248-1.572-.668-2.205l.319-1.277c.232-.925.349-1.878.349-2.833 0-6.443-5.242-11.685-11.685-11.685h-15.901c-1.331 0-2.414 1.083-2.414 2.414 0 .592.22 1.146.607 1.586h-.193c-1.331 0-2.414 1.083-2.414 2.414 0 .645.251 1.251.707 1.707.414.414.85.8 1.293 1.173v1.544c0 1.693.22 3.377.635 5.017-.397.621-.635 1.354-.635 2.145 0 2.206 1.794 4 4 4h1.055c1.12 2.763 3.09 5.144 5.719 6.788.056.035.116.059.173.092l-.275.863c-.098.306-.272.574-.495.797l-1.133-.68-.491.246c-.052.026-.691.356-1.317 1.128l-2.922.183c-5.784.36-10.314 5.183-10.314 10.978v9.605c0 3.309 2.691 6 6 6h24.123c.415 1.833 1.928 3.285 3.855 3.541 2.27.301 4.697.459 7.022.459s4.752-.158 7.021-.459 3.979-2.253 3.979-4.541v-12.196c2.277-.593 4-1.479 4-2.804v-4c0-.591-.004-2.041-5.319-3.106 3.203-2.566 5.269-6.49 5.312-10.894h4.288l-.581-2.323c-.47-1.882-1.996-3.267-3.852-3.598zm-19.701 8.557-6.598-.825 1.228 3.683-2.478 1.239c-.445-.418-.813-.607-.852-.627l-.491-.246-1.133.68c-.223-.223-.397-.491-.495-.797l-.275-.862c.056-.033.117-.057.172-.092 2.63-1.643 4.6-4.025 5.72-6.788h1.055c.751 0 1.446-.221 2.047-.582.134 1.44.863 2.699 1.953 3.532v.608c0 .373.06.73.147 1.077zm-18.3 23.364-1.749-10.493 3.3-1.98c.187.119.39.213.602.288v12.185zm9.099-17.801c.432.411 1.054 1.27 1.054 2.801 0 .319-.037.617-.09.905-.903.416-1.491.891-1.751 1.424l-2.323-1.394c.098-.296.164-.607.164-.935s-.066-.639-.164-.935zm-4.946 2.801c0 .552-.449 1-1 1s-1-.448-1-1 .449-1 1-1 1 .448 1 1zm0 2.816c.212-.076.415-.169.602-.289l3.3 1.98-1.749 10.493h-2.153zm4 13.802 3.105-1.553c.391-.197.895.118.895.553v1.382h3c.551 0 1 .448 1 1v2c0 .552-.449 1-1 1h-7zm4-3.536c-.199-.049-.404-.082-.618-.082-.404 0-.809.096-1.171.276l-1.902.951.918-5.506c.709.44 1.674.796 2.773 1.082zm-.21-14.781 1.464.091 1.405 1.204c.018.016.038.029.057.044-1.027.162-1.936.347-2.729.554.002-.066.013-.127.013-.194 0-.639-.081-1.201-.21-1.699zm2.21-16.735v-.566c1.103 0 2 .897 2 2s-.897 2-2 2h-.414c.269-1.108.414-2.258.414-3.434zm-25.586-10.566h5.586v-2h-2.586l-1.293-1.293c-.077-.077-.121-.184-.121-.293 0-.228.186-.414.414-.414h15.901c5.341 0 9.685 4.344 9.685 9.685 0 .792-.097 1.582-.289 2.349l-.081.322c-.499-.225-1.048-.356-1.63-.356h-.08c-.488-3.387-3.401-6-6.92-6h-1.101c-.465-2.279-2.485-4-4.899-4h-1v2h1c1.654 0 3 1.346 3 3s-1.346 3-3 3h-.101c-4.827 0-9.365-1.88-12.778-5.293-.077-.077-.121-.184-.121-.293 0-.228.186-.414.414-.414zm3.586 5.908v2.092c-.591 0-1.148.137-1.654.368-.226-1.162-.346-2.344-.346-3.53v-.061c.645.419 1.315.791 2 1.131zm0 8.092c-1.103 0-2-.897-2-2s.897-2 2-2v.566c0 1.176.145 2.326.414 3.434zm2-3.434v-3.803c2.183.799 4.505 1.237 6.899 1.237h.101c2.414 0 4.434-1.721 4.899-4h1.101c2.757 0 5 2.243 5 5v1.566c0 4.308-2.181 8.243-5.834 10.526-1.899 1.188-4.431 1.188-6.332 0-3.653-2.283-5.834-6.218-5.834-10.526zm6.577 13.785.212-.664c.715.206 1.458.313 2.211.313s1.496-.107 2.211-.313l.212.664c.145.453.372.867.658 1.234l-1.479.888c-.464-.296-1.012-.473-1.602-.473s-1.138.177-1.602.473l-1.479-.888c.285-.367.513-.781.658-1.234zm-3.524 1.847 3.111 1.867c-.098.296-.164.607-.164.935s.066.639.164.935l-3.11 1.866c-.432-.411-1.054-1.27-1.054-2.801 0-1.535.625-2.394 1.053-2.802zm-13.053 19.802v-9.605c0-4.741 3.707-8.687 8.438-8.982l1.771-.111c-.128.497-.209 1.059-.209 1.698 0 2.654 1.347 4.034 2.085 4.591l1.735 10.409h-7.82v-6h-2v6h-2v2h20v4h-18c-2.206 0-4-1.794-4-4zm45.759 7.559c-2.152.284-4.552.441-6.759.441s-4.607-.157-6.759-.441c-.927-.124-1.683-.739-2.031-1.559h.79c1.654 0 3-1.346 3-3v-2c0-1.654-1.346-3-3-3h-1v-.769c2.667.486 5.931.769 9 .769s6.334-.283 9-.769v7.769c0 1.289-.963 2.389-2.241 2.559zm2.241-12.364c-2.609.506-5.9.805-9 .805-3.099 0-6.39-.299-9-.805v-1.962c4.14.732 8.915.767 9 .767s4.86-.035 9-.767zm-9-3.195c-6.54 0-12.188-1.251-13-2.129v-1.745c4.055 1.808 12.885 1.874 13 1.874s8.945-.066 13-1.874v1.745c-.812.878-6.46 2.129-13 2.129zm12.835-5.99c-1.233.865-6.634 1.99-12.835 1.99-6.208 0-11.613-1.128-12.84-1.993.671-.443 2.84-1.21 7.057-1.681 2.034 1.083 4.311 1.674 6.644 1.674 2.265 0 4.401-.549 6.301-1.5 3.513.499 5.129 1.157 5.673 1.51zm.165-14.149c0 6.693-5.446 12.139-12.14 12.139-2.896 0-5.701-1.038-7.9-2.922l-2.166-1.857 1.429-.714-.772-2.317 4.991.624c.629.58 1.421.976 2.303 1.117.825 1.27 2.257 2.069 3.795 2.069 1.208 0 2.345-.471 3.199-1.325l.968-.968-1.414-1.414-.968.968c-.477.476-1.111.739-1.785.739-.461 0-.902-.135-1.286-.364l2.063-.687-.633-1.897-2.47.823c-.25.083-.509.125-.773.125-1.23 0-2.24-.917-2.407-2.102.327.067.665.102 1.011.102.78 0 1.561-.185 2.256-.533l1.146-.573-.895-1.789-1.146.573c-.42.211-.89.322-1.361.322-1.679 0-3.045-1.366-3.045-3.045v-.234c0-.475.499-.833.949-.684l11.735 3.912.633-1.897-2.209-.736.357-2.496c.229-1.608 1.627-2.82 3.251-2.82 1.811 0 3.284 1.473 3.284 3.284zm2-1.861v-1.809c.805.305 1.448.958 1.714 1.809z"/><path d="m42.842 11.688 1.158 3.474 1.158-3.474c.396-1.188 1.342-2.134 2.53-2.53l3.473-1.158-3.473-1.159c-1.188-.396-2.134-1.342-2.53-2.53l-1.158-3.474-.949 2.847c-.527 1.582-1.786 2.84-3.367 3.367l-2.847.949 3.475 1.158c1.188.396 2.134 1.342 2.53 2.53zm1.077-5.379c.434.666.996 1.242 1.651 1.691-.615.421-1.148.955-1.57 1.57-.449-.655-1.025-1.218-1.691-1.651.616-.45 1.16-.994 1.61-1.61z"/><path d="m57 5h2v4h-2z"/><path d="m59 9h4v2h-4z"/><path d="m53 9h4v2h-4z"/><path d="m57 11h2v4h-2z"/><path d="m51 3h2v2h-2z"/><path d="m61 17h2v2h-2z"/><path d="m39 15h2v2h-2z"/><path d="m59 29h2v2h-2z"/></g></g></svg>