<?xml version="1.0" encoding="UTF-8"?>
<svg xmlns="http://www.w3.org/2000/svg" xmlns:xlink="http://www.w3.org/1999/xlink" version="1.1" id="Capa_1" x="0px" y="0px" viewBox="0 0 512 512" style="enable-background:new 0 0 512 512;" xml:space="preserve" width="512" height="512">
<g>
	<circle style="fill:#6F3F8A;" cx="256" cy="227.47" r="219.971"/>
	<path style="fill:#5B3374;" d="M304.409,442.1c-15.58,3.49-31.78,5.34-48.41,5.34c-121.49,0-219.97-98.48-219.97-219.97&#10;&#9;&#9;S134.509,7.5,255.999,7.5c16.63,0,32.83,1.85,48.41,5.34c-98.2,22.05-171.57,109.77-171.57,214.63S206.209,420.05,304.409,442.1z"/>
	<path style="fill:#C2A1D5;" d="M475.969,227.469c0,121.49-98.48,219.97-219.97,219.97c-121.48,0-219.97-98.48-219.97-219.97&#10;&#9;&#9;c0-10.8,0.78-21.42,2.28-31.81c9.58-11.74,24.17-19.24,40.51-19.24c9.55,0,18.49,2.57,26.19,7.04&#10;&#9;&#9;c7.33-39.69,42.11-69.76,83.92-69.76c25.02,0,47.53,10.76,63.14,27.91c3.46-12.56,14.97-21.79,28.63-21.79&#10;&#9;&#9;c16.18,0,29.33,12.94,29.68,29.03c10.51-6.98,23.1-11.05,36.66-11.05c28.54,0,52.87,18.03,62.23,43.33&#10;&#9;&#9;c7.47-6.58,17.26-10.58,28-10.58c14.84,0,27.91,7.63,35.47,19.19C474.869,201.999,475.969,214.599,475.969,227.469z"/>
	<path style="fill:#B289C9;" d="M304.409,442.1c-15.57,3.49-31.78,5.34-48.41,5.34c-121.48,0-219.97-98.48-219.97-219.97&#10;&#9;&#9;c0-10.8,0.78-21.42,2.28-31.81c9.58-11.74,24.17-19.24,40.51-19.24c9.55,0,18.49,2.57,26.19,7.04c5.68-30.73,27.8-55.69,56.92-65.4&#10;&#9;&#9;c-18.5,32.22-29.09,69.58-29.09,109.41C132.839,332.33,206.209,420.05,304.409,442.1z"/>
	<path style="fill:none;stroke:#000000;stroke-width:15;stroke-linecap:round;stroke-linejoin:round;stroke-miterlimit:10;" d="&#10;&#9;&#9;M95.34,77.23c-36.79,39.31-59.31,92.14-59.31,150.24c0,64.31,27.59,122.17,71.59,162.38"/>
	<path style="fill:none;stroke:#000000;stroke-width:15;stroke-linecap:round;stroke-linejoin:round;stroke-miterlimit:10;" d="&#10;&#9;&#9;M120.48,54.2C157.83,24.94,204.88,7.5,256,7.5c121.49,0,219.97,98.48,219.97,219.97c0,64.31-27.59,122.17-71.59,162.38"/>
	<path style="fill:none;stroke:#000000;stroke-width:15;stroke-linecap:round;stroke-linejoin:round;stroke-miterlimit:10;" d="&#10;&#9;&#9;M400.84,165.34c3.48,4.82,6.33,10.12,8.43,15.79c7.47-6.58,17.26-10.58,28-10.58c14.84,0,27.91,7.63,35.47,19.19"/>
	<path style="fill:none;stroke:#000000;stroke-width:15;stroke-linecap:round;stroke-linejoin:round;stroke-miterlimit:10;" d="&#10;&#9;&#9;M225.38,121.85c10.16,4.8,19.21,11.55,26.69,19.76c3.46-12.56,14.97-21.79,28.63-21.79c16.18,0,29.33,12.94,29.68,29.03&#10;&#9;&#9;c10.51-6.98,23.1-11.05,36.66-11.05c9.46,0,18.46,1.98,26.6,5.56"/>
	<path style="fill:none;stroke:#000000;stroke-width:15;stroke-linecap:round;stroke-linejoin:round;stroke-miterlimit:10;" d="&#10;&#9;&#9;M38.31,195.66c9.58-11.74,24.17-19.24,40.51-19.24c9.55,0,18.49,2.57,26.19,7.04c4.01-21.74,16.26-40.59,33.39-53.19"/>
	<g>
		<path style="fill:#FFE177;" d="M224.15,112.759l-39.262-11.838L173.05,61.66c-1.44-4.775-8.202-4.775-9.641,0l-11.838,39.262&#10;&#9;&#9;&#9;l-39.262,11.838c-4.775,1.44-4.775,8.202,0,9.641l39.262,11.838l11.838,39.262c1.44,4.775,8.202,4.775,9.641,0l11.838-39.262&#10;&#9;&#9;&#9;l39.262-11.838C228.925,120.961,228.925,114.199,224.15,112.759z"/>
		<path style="fill:none;stroke:#000000;stroke-width:15;stroke-linecap:round;stroke-linejoin:round;stroke-miterlimit:10;" d="&#10;&#9;&#9;&#9;M224.15,112.759l-39.262-11.838L173.05,61.66c-1.44-4.775-8.202-4.775-9.641,0l-11.838,39.262l-39.262,11.838&#10;&#9;&#9;&#9;c-4.775,1.44-4.775,8.202,0,9.641l39.262,11.838l11.838,39.262c1.44,4.775,8.202,4.775,9.641,0l11.838-39.262l39.262-11.838&#10;&#9;&#9;&#9;C228.925,120.961,228.925,114.199,224.15,112.759z"/>
	</g>
	<path style="fill:#FFE177;" d="M270.317,296.286l-36.22-10.92l-10.92-36.22c-1.328-4.405-7.566-4.405-8.894,0l-10.92,36.22&#10;&#9;&#9;l-36.22,10.92c-4.405,1.328-4.405,7.566,0,8.894l36.22,10.92l10.92,36.22c1.328,4.405,7.566,4.405,8.894,0l10.92-36.22l36.22-10.92&#10;&#9;&#9;C274.722,303.852,274.722,297.614,270.317,296.286z"/>
	<g>
		<path style="fill:#FFE177;" d="M425.365,225.959l-39.262-11.838l-11.838-39.262c-1.44-4.775-8.202-4.775-9.641,0l-11.838,39.262&#10;&#9;&#9;&#9;l-39.262,11.838c-4.775,1.44-4.775,8.202,0,9.641l39.262,11.838l11.838,39.262c1.44,4.775,8.202,4.775,9.641,0l11.838-39.262&#10;&#9;&#9;&#9;l39.262-11.838C430.14,234.16,430.14,227.399,425.365,225.959z"/>
		<path style="fill:none;stroke:#000000;stroke-width:15;stroke-linecap:round;stroke-linejoin:round;stroke-miterlimit:10;" d="&#10;&#9;&#9;&#9;M425.365,225.959l-39.262-11.838l-11.838-39.262c-1.44-4.775-8.202-4.775-9.641,0l-11.838,39.262l-39.262,11.838&#10;&#9;&#9;&#9;c-4.775,1.44-4.775,8.202,0,9.641l39.262,11.838l11.838,39.262c1.44,4.775,8.202,4.775,9.641,0l11.838-39.262l39.262-11.838&#10;&#9;&#9;&#9;C430.14,234.16,430.14,227.399,425.365,225.959z"/>
	</g>
	<path style="fill:none;stroke:#000000;stroke-width:15;stroke-linecap:round;stroke-linejoin:round;stroke-miterlimit:10;" d="&#10;&#9;&#9;M270.317,296.286l-36.22-10.92l-10.92-36.22c-1.328-4.405-7.566-4.405-8.894,0l-10.92,36.22l-36.22,10.92&#10;&#9;&#9;c-4.405,1.328-4.405,7.566,0,8.894l36.22,10.92l10.92,36.22c1.328,4.405,7.566,4.405,8.894,0l10.92-36.22l36.22-10.92&#10;&#9;&#9;C274.722,303.852,274.722,297.614,270.317,296.286z"/>
	<path style="fill:#FFE177;" d="M73.054,463.804l21.234-63.315c2.148-6.404,8.147-10.72,14.901-10.72h293.622&#10;&#9;&#9;c6.755,0,12.754,4.316,14.901,10.72l21.234,63.315L256,484.151L73.054,463.804z"/>
	<path style="fill:#FECE85;" d="M175.259,389.769c-6.75,0-12.75,4.32-14.9,10.72l-21.23,63.31l11.24,4.71l-28.77,15.64l-48.54-20.35&#10;&#9;&#9;l21.23-63.31c2.15-6.4,8.15-10.72,14.9-10.72H175.259z"/>
	<path style="fill:#FEA95C;" d="M438.946,463.804H73.054c-11.238,0-20.347,9.11-20.347,20.348v0c0,11.238,9.11,20.347,20.347,20.347&#10;&#9;&#9;h365.892c11.238,0,20.347-9.11,20.347-20.347v0C459.294,472.914,450.184,463.804,438.946,463.804z"/>
	<path style="fill:#FD9468;" d="M143.366,498.541c3.68,3.68,8.77,5.96,14.39,5.96h-84.71c-5.61,0-10.7-2.28-14.38-5.96&#10;&#9;&#9;c-3.68-3.68-5.96-8.77-5.96-14.39c0-11.24,9.11-20.35,20.34-20.35h84.71c-11.24,0-20.35,9.11-20.35,20.35&#10;&#9;&#9;C137.406,489.771,139.686,494.861,143.366,498.541z"/>
	<path style="fill:none;stroke:#000000;stroke-width:15;stroke-linecap:round;stroke-linejoin:round;stroke-miterlimit:10;" d="&#10;&#9;&#9;M175.26,463.8h263.69c5.61,0,10.7,2.28,14.38,5.96c3.68,3.68,5.96,8.77,5.96,14.39c0,11.24-9.11,20.35-20.34,20.35H73.05&#10;&#9;&#9;c-5.61,0-10.7-2.28-14.38-5.96c-3.68-3.68-5.96-8.77-5.96-14.39c0-11.24,9.11-20.35,20.34-20.35h67.21"/>
	<path style="fill:none;stroke:#000000;stroke-width:15;stroke-linecap:round;stroke-linejoin:round;stroke-miterlimit:10;" d="&#10;&#9;&#9;M73.054,463.804l21.234-63.315c2.148-6.404,8.147-10.72,14.901-10.72h293.622c6.755,0,12.754,4.316,14.901,10.72l21.234,63.315"/>
</g>















</svg>
