<svg clip-rule="evenodd" fill-rule="evenodd" height="300" image-rendering="optimizeQuality" shape-rendering="geometricPrecision" text-rendering="geometricPrecision" viewBox="0 0 69.68 69.68" width="300" xmlns="http://www.w3.org/2000/svg" xmlns:xodm="http://www.corel.com/coreldraw/odm/2003"><g id="Layer_x0020_1"><g id="_105553463558400"><ellipse cx="34.84" cy="60.43" fill="#4396a1" rx="34.84" ry="9.25"/><path d="m57.16 55.76c-16.74 5.49-35.19 3.32-45.42-.33 1.41-7.35 3.61-14.59 4.22-22.05 2.5-30.5 8.92-20.29 19.19-23.03 6.94-1.86 10.01-2.43 14.95-7.14 2.32 0 5.31-.33 6.39-.37.59 3.38 1.87 9.01-.94 14.84-1.73 3.58-7.25 3.62-7.53 7.58-.53 7.32 1.78 12.83 4.59 18.03 3.28 6.09 3.13 4.98 4.55 12.47z" fill="#14373b"/><path d="m31.51 51.23c-6.94-.17-13.29-.89-18.44-1.99-.32 1.39-.63 2.78-.92 4.18-.14.67-.28 1.34-.41 2.01 10.23 3.65 28.68 5.82 45.42.33-.19-.98-.35-1.81-.49-2.53-.35-1.77-.6-2.86-.93-3.81-4.99 1-11.01 1.65-17.57 1.81-1.1.03-2.21.04-3.33.04s-2.23-.01-3.33-.04z" fill="#e67b09"/><circle cx="53.3" cy="3.21" fill="#ff8705" r="3.21"/></g></g></svg>